<svg id="zoom-in_1_" data-name="zoom-in (1)" xmlns="http://www.w3.org/2000/svg" width="46.901" height="46.901" viewBox="0 0 46.901 46.901">
  <g id="Сгруппировать_28" data-name="Сгруппировать 28" transform="translate(0 0)">
    <g id="Сгруппировать_27" data-name="Сгруппировать 27" transform="translate(0)">
      <path id="Контур_73" data-name="Контур 73" d="M46.364,43.772,33.132,30.54a18.692,18.692,0,1,0-2.591,2.591L43.772,46.364a1.832,1.832,0,0,0,2.591-2.591ZM29.308,29.308a15.027,15.027,0,1,1,0-21.251A15.044,15.044,0,0,1,29.308,29.308Z" transform="translate(0 0)" fill="#fff"/>
    </g>
  </g>
  <g id="Сгруппировать_30" data-name="Сгруппировать 30" transform="translate(7.878 7.878)">
    <g id="Сгруппировать_29" data-name="Сгруппировать 29">
      <path id="Контур_74" data-name="Контур 74" d="M105.781,94.977h-7.14v-7.14a1.832,1.832,0,1,0-3.665,0v7.14h-7.14a1.832,1.832,0,1,0,0,3.665h7.14v7.14a1.832,1.832,0,1,0,3.665,0v-7.14h7.14a1.832,1.832,0,1,0,0-3.665Z" transform="translate(-86.005 -86.005)" fill="#fff"/>
    </g>
  </g>
</svg>
