<svg xmlns="http://www.w3.org/2000/svg" width="184" height="25.5" viewBox="0 0 184 25.5">
  <g id="ссылка" transform="translate(-616 -9363.5)">
    <path id="Icon_awesome-file-download" data-name="Icon awesome-file-download" d="M10.937,6.641V0H1.172A1.169,1.169,0,0,0,0,1.172V23.828A1.169,1.169,0,0,0,1.172,25H17.578a1.169,1.169,0,0,0,1.172-1.172V7.813H12.109A1.175,1.175,0,0,1,10.937,6.641Zm3.733,10.32L9.962,21.634a.833.833,0,0,1-1.174,0L4.081,16.961a.781.781,0,0,1,.549-1.336H7.813V11.719a.781.781,0,0,1,.781-.781h1.562a.781.781,0,0,1,.781.781v3.906H14.12A.781.781,0,0,1,14.67,16.961ZM18.408,5.127,13.628.342A1.171,1.171,0,0,0,12.8,0h-.3V6.25h6.25v-.3A1.168,1.168,0,0,0,18.408,5.127Z" transform="translate(616 9363.5)" fill="#6e8499"/>
    <text id="Скачать_сертификат" data-name="Скачать сертификат" transform="translate(645.75 9382)" fill="#6e8499" font-size="16" font-family="SegoeUI, Segoe UI"><tspan x="0" y="0">Скачать сертификат</tspan></text>
    <rect id="Прямоугольник_123" data-name="Прямоугольник 123" width="154" height="1" transform="translate(646 9388)" fill="#6e8499"/>
  </g>
</svg>
