<svg xmlns="http://www.w3.org/2000/svg" width="18" height="11.603" viewBox="0 0 18 11.603">
  <g id="mail_1_" data-name="mail (1)" transform="translate(0 -91)">
    <g id="Сгруппировать_6" data-name="Сгруппировать 6" transform="translate(0 91.736)">
      <g id="Сгруппировать_5" data-name="Сгруппировать 5">
        <path id="Контур_27" data-name="Контур 27" d="M17.75,111.933l-8.434,6.541a.526.526,0,0,1-.632,0L.25,111.933a1.568,1.568,0,0,0-.25.846v8.438A1.584,1.584,0,0,0,1.582,122.8H16.418A1.584,1.584,0,0,0,18,121.217v-8.438A1.568,1.568,0,0,0,17.75,111.933Z" transform="translate(0 -111.933)" fill="#1c1515"/>
      </g>
    </g>
    <g id="Сгруппировать_8" data-name="Сгруппировать 8" transform="translate(1.119 91)">
      <g id="Сгруппировать_7" data-name="Сгруппировать 7">
        <path id="Контур_28" data-name="Контур 28" d="M47.115,91H32.279a1.56,1.56,0,0,0-.463.077L39.7,97.2l7.881-6.119A1.56,1.56,0,0,0,47.115,91Z" transform="translate(-31.816 -91)" fill="#1c1515"/>
      </g>
    </g>
  </g>
</svg>
