<svg xmlns="http://www.w3.org/2000/svg" width="34" height="34" viewBox="0 0 34 34">
  <g id="Сгруппировать_109" data-name="Сгруппировать 109" transform="translate(-1184 -20)">
    <rect id="bg" data-name="Прямоугольник 217" width="34" height="34" rx="10" transform="translate(1184 20)" fill="#6e8499"/>
    <g id="mail_1_" data-name="mail (1)" transform="translate(1192 31)">
      <g id="Сгруппировать_6" data-name="Сгруппировать 6" transform="translate(0 0.736)">
        <g id="Сгруппировать_5" data-name="Сгруппировать 5">
          <path id="Контур_27" data-name="Контур 27" d="M17.75,111.933l-8.434,6.541a.526.526,0,0,1-.632,0L.25,111.933a1.568,1.568,0,0,0-.25.846v8.438A1.584,1.584,0,0,0,1.582,122.8H16.418A1.584,1.584,0,0,0,18,121.217v-8.438A1.568,1.568,0,0,0,17.75,111.933Z" transform="translate(0 -111.933)" fill="#fff"/>
        </g>
      </g>
      <g id="Сгруппировать_8" data-name="Сгруппировать 8" transform="translate(1.118)">
        <g id="Сгруппировать_7" data-name="Сгруппировать 7">
          <path id="Контур_28" data-name="Контур 28" d="M47.115,91H32.279a1.56,1.56,0,0,0-.463.077L39.7,97.2l7.881-6.119A1.56,1.56,0,0,0,47.115,91Z" transform="translate(-31.816 -91)" fill="#fff"/>
        </g>
      </g>
    </g>
  </g>
</svg>
