<svg id="телефон" xmlns="http://www.w3.org/2000/svg" width="184" height="34" viewBox="0 0 184 34">
  <rect id="Прямоугольник_16" data-name="Прямоугольник 16" width="34" height="34" rx="10" fill="#6e8499"/>
  <path id="Icon_awesome-phone-alt" data-name="Icon awesome-phone-alt" d="M17.487,12.72l-3.938-1.688a.844.844,0,0,0-.984.243l-1.744,2.13A13.031,13.031,0,0,1,4.591,7.176l2.13-1.744a.842.842,0,0,0,.243-.984L5.277.51A.849.849,0,0,0,4.31.022L.654.865A.844.844,0,0,0,0,1.688,16.311,16.311,0,0,0,16.313,18a.844.844,0,0,0,.823-.654l.844-3.656a.854.854,0,0,0-.493-.97Z" transform="translate(8 8)" fill="#fff"/>
  <g id="Компонент_1_28" data-name="Компонент 1 – 28" transform="translate(44 5)">
    <text id="_8_495_226-08-66_" data-name="‌8‌ ‌(495)‌ ‌226-08-66‌" transform="translate(0 17)" fill="#1c1515" font-size="16" font-family="SegoeUI-Bold, Segoe UI" font-weight="700"><tspan x="0" y="0">‌8‌ ‌(495)‌ ‌226-08-66‌</tspan></text>
  </g>
</svg>
