<svg id="телеграм" xmlns="http://www.w3.org/2000/svg" width="34" height="34" viewBox="0 0 34 34">
  <rect id="Прямоугольник_217" data-name="Прямоугольник 217" width="34" height="34" rx="10" fill="#6e8499"/>
  <path id="Контур_94" data-name="Контур 94" d="M42.729,76.59l10.722-4.418c1.058-.46,4.648-1.933,4.648-1.933s1.657-.644,1.519.92c-.046.644-.414,2.9-.782,5.338l-1.15,7.225s-.092,1.058-.874,1.242a3.785,3.785,0,0,1-2.3-.828c-.184-.138-3.451-2.209-4.648-3.221a.872.872,0,0,1,.046-1.473c1.657-1.519,3.635-3.405,4.832-4.6.552-.552,1.1-1.841-1.2-.276l-6.488,4.372a2.7,2.7,0,0,1-2.117.046c-1.381-.414-2.991-.966-2.991-.966S40.842,77.326,42.729,76.59Z" transform="translate(-33.625 -60.108)" fill="#fff"/>
</svg>
