<svg id="вотсап" xmlns="http://www.w3.org/2000/svg" width="34" height="34" viewBox="0 0 34 34">
  <rect id="Прямоугольник_216" data-name="Прямоугольник 216" width="34" height="34" rx="10" fill="#6e8499"/>
  <path id="вотсап-01" d="M8.994,0A8.993,8.993,0,0,0,1.436,13.872l-1.368,3a.787.787,0,0,0,.7,1.111.868.868,0,0,0,.211-.028l3.765-1.034A9,9,0,1,0,8.994,0Zm4.412,11.872a2.2,2.2,0,0,1-1.656,1.234,3.48,3.48,0,0,1-1.828-.288,7.657,7.657,0,0,1-1.571-.745A8.989,8.989,0,0,1,5.83,9.731a10.048,10.048,0,0,1-.58-.882,4.778,4.778,0,0,1-.555-1.283,2.647,2.647,0,0,1-.074-.58,2.3,2.3,0,0,1,.8-1.825,1.055,1.055,0,0,1,1.136-.169c.387.214.584.766.763,1.15a1.919,1.919,0,0,1,.243,1.034,2.067,2.067,0,0,1-.534.875.352.352,0,0,0-.046.5,5.941,5.941,0,0,0,2.96,2.538.323.323,0,0,0,.422-.091c.221-.274.439-.805.78-.946a1.537,1.537,0,0,1,1.311.3c.376.225.935.468,1.03.9A1.055,1.055,0,0,1,13.406,11.872Z" transform="translate(8.003 8)" fill="#fff" fill-rule="evenodd"/>
</svg>
